<svg width="30" height="36" viewBox="0 0 30 36" fill="none" xmlns="http://www.w3.org/2000/svg">
<path d="M25.0568 19.1447C25.0934 16.3656 26.6221 13.7361 29.0472 12.2805C27.5173 10.1473 24.9548 8.79484 22.2888 8.7134C19.4453 8.42201 16.6887 10.3746 15.2397 10.3746C13.7626 10.3746 11.5317 8.74233 9.12928 8.79059C5.99788 8.88936 3.07863 10.6275 1.55514 13.3003C-1.71976 18.8359 0.723022 26.9714 3.86011 31.446C5.42965 33.6371 7.26401 36.0845 9.66422 35.9978C12.013 35.9026 12.8902 34.5355 15.7253 34.5355C18.5342 34.5355 19.3572 35.9978 21.8061 35.9426C24.3264 35.9026 25.9143 33.7418 27.4288 31.5299C28.5565 29.9687 29.4243 28.2432 30 26.4174C27.0382 25.1944 25.0602 22.2843 25.0568 19.1447Z" fill="#343434"/>
<path d="M20.4311 5.7707C21.8053 4.16014 22.4823 2.09003 22.3184 0C20.219 0.215281 18.2796 1.1949 16.8869 2.74367C15.525 4.2569 14.8162 6.29058 14.9502 8.30073C17.0504 8.32184 19.1151 7.36878 20.4311 5.7707Z" fill="#343434"/>
</svg>
