<svg width="148" height="27" viewBox="0 0 148 27" fill="none" xmlns="http://www.w3.org/2000/svg">
<path d="M7.31756 3.0838V7.24334H10.7324V11.0443H7.31756V20.224C7.31756 21.6583 8.01447 22.3754 9.47798 22.3754C9.89612 22.3754 10.384 22.3754 10.6627 22.3037V26.033C10.1749 26.1047 9.2689 26.2481 8.29323 26.2481C4.04208 26.2481 2.36949 24.7421 2.36949 21.0845V11.0443H0V7.24334H2.50888V3.0838H7.31756Z" fill="#CF5AB4"/>
<path d="M12.1853 0.215149H16.9242V10.614H16.9939C18.0393 8.24735 19.921 6.95646 22.7783 6.95646C26.8204 6.95646 29.1899 9.68168 29.1899 14.0564V26.1047H24.3115V15.1321C24.3115 12.6938 23.1267 11.1877 20.8269 11.1877C18.4575 11.1877 16.9939 12.9089 16.9939 15.419V26.1047H12.1156V0.215149H12.1853Z" fill="#CF5AB4"/>
<path d="M31.3432 2.58178C31.3432 1.07574 32.5279 0 33.9218 0C35.3853 0 36.57 1.14746 36.57 2.58178C36.57 4.0161 35.3853 5.23528 33.9218 5.23528C32.5279 5.23528 31.3432 4.08782 31.3432 2.58178ZM31.4826 7.24333H36.361V26.1047H31.4826V7.24333Z" fill="#CF5AB4"/>
<path d="M46.1106 6.95647C50.6405 6.95647 53.6372 9.3231 53.7069 12.9089H49.2467C49.177 11.4029 47.9226 10.4706 46.0409 10.4706C44.2986 10.4706 43.1139 11.2594 43.1139 12.4786C43.1139 13.4109 43.8805 14.0564 45.5531 14.4149L48.9679 15.2038C52.6616 16.0644 54.1251 17.4987 54.1251 20.2957C54.1251 23.9532 50.8496 26.3915 46.0409 26.3915C41.2322 26.3915 38.1658 24.0249 37.9568 20.3674H42.6957C42.9048 21.9451 44.1593 22.8774 46.1803 22.8774C48.1316 22.8774 49.3164 22.0886 49.3164 20.8694C49.3164 19.8654 48.6892 19.3634 47.0166 19.0048L43.6714 18.2159C40.2566 17.427 38.4446 15.5624 38.4446 12.8372C38.4446 9.25138 41.4413 6.95647 46.1106 6.95647Z" fill="#CF5AB4"/>
<path d="M56.4981 16.7099C56.4981 10.6857 60.0523 6.95647 65.5579 6.95647C71.0635 6.95647 74.6178 10.6857 74.6178 16.7099C74.6178 22.8057 71.1332 26.4632 65.5579 26.4632C59.9827 26.4632 56.4981 22.8057 56.4981 16.7099ZM69.6 16.7099C69.6 12.9806 68.0668 10.8291 65.4882 10.8291C62.9097 10.8291 61.3765 13.0523 61.3765 16.7099C61.3765 20.4391 62.9097 22.5906 65.4882 22.5906C68.0668 22.5906 69.6 20.4391 69.6 16.7099Z" fill="#E2C4D0"/>
<path d="M75.6525 7.24332H80.3218V10.614H80.3915C81.0187 8.31906 82.6216 7.02817 84.782 7.02817C85.3395 7.02817 85.8274 7.09988 86.1758 7.24332V11.6897C85.7577 11.5463 85.0608 11.4029 84.3639 11.4029C81.9247 11.4029 80.4612 12.9806 80.4612 15.6341V26.1764H75.5828V7.24332H75.6525Z" fill="#E2C4D0"/>
<path d="M97.0807 26.3915C92.7599 26.3915 90.9479 24.8138 90.9479 21.0128V11.2594H88.4391V7.02817H90.9479V2.86864H96.2444V7.02817H99.6593V11.2594H96.2444V20.2239C96.2444 21.5865 96.8717 22.1603 98.1958 22.1603C98.6139 22.1603 99.1018 22.1603 99.3805 22.0886L99.6593 22.0168V26.1764H99.5199C98.9624 26.3198 98.0564 26.3915 97.0807 26.3915Z" fill="#E9960E"/>
<path d="M118.608 26.3198H113.312V15.1321C113.312 12.6938 112.127 11.4029 110.036 11.4029C107.806 11.4029 106.412 12.9806 106.412 15.419V26.3198H101.116V0H106.343V9.89682C107.458 7.81706 109.409 6.74131 111.987 6.74131C116.099 6.74131 118.608 9.46653 118.608 14.0564V26.3198Z" fill="#E9960E"/>
<path d="M126.058 26.5349C122.364 26.5349 119.646 24.0966 119.646 20.6542C119.646 17.1401 122.225 15.0604 127.034 14.7735L131.424 14.4866V13.4109C131.424 11.7614 130.309 10.8291 128.427 10.8291C126.825 10.8291 125.64 11.6897 125.431 12.9806V13.1958H120.622V12.9806C120.761 9.25137 124.037 6.66959 128.706 6.66959C133.515 6.66959 136.721 9.25137 136.721 13.124V26.2481H131.633V23.738C130.379 25.5309 128.288 26.5349 126.058 26.5349ZM131.424 18.0724L127.8 18.3593C126.476 18.431 124.873 18.8613 124.873 20.5108C124.873 21.8017 125.919 22.5188 127.591 22.5188C129.752 22.5188 131.424 21.0845 131.424 19.2199V18.0724Z" fill="#E9960E"/>
<path d="M145.421 26.3915C141.101 26.3915 139.289 24.8138 139.289 21.0128V11.2594H136.78V7.02817H139.289V2.86864H144.585V7.02817H148V11.2594H144.585V20.2239C144.585 21.5865 145.212 22.1603 146.536 22.1603C146.955 22.1603 147.442 22.1603 147.721 22.0886L148 22.0168V26.1764H147.861C147.303 26.3198 146.397 26.3915 145.421 26.3915Z" fill="#E9960E"/>
</svg>
