<svg width="432" height="433" viewBox="0 0 432 433" fill="none" xmlns="http://www.w3.org/2000/svg">
<g filter="url(#filter0_d_21_34)">
<rect x="109" y="125" width="294" height="294" rx="12" fill="white"/>
</g>
<circle opacity="0.1" cx="249.994" cy="270.994" r="91.0243" fill="#6BCCFE"/>
<g filter="url(#filter1_d_21_34)">
<path d="M307.92 187.196C309.49 184.924 308.928 181.799 306.586 180.336C284.063 166.272 257.046 161.065 230.806 165.851C202.923 170.938 178.203 186.892 162.083 210.205C145.963 233.518 139.765 262.279 144.851 290.162C149.638 316.402 164.049 339.841 185.16 355.947C187.355 357.621 190.478 357.044 192.049 354.773L249.984 270.984L307.92 187.196Z" fill="url(#paint0_linear_21_34)"/>
</g>
<g filter="url(#filter2_d_21_34)">
<path d="M249.994 380.07C249.994 382.831 252.234 385.081 254.993 384.96C283.429 383.714 310.445 371.87 330.657 351.657C352.051 330.264 364.07 301.248 364.07 270.994C364.07 240.739 352.051 211.723 330.658 190.33C310.445 170.118 283.429 158.273 254.993 157.027C252.234 156.906 249.994 159.156 249.994 161.918L249.994 270.994L249.994 380.07Z" fill="#9885FA"/>
</g>
<path d="M172.574 347.83C170.614 349.775 170.595 352.95 172.624 354.823C193.54 374.129 220.978 384.961 249.562 385.069C279.817 385.183 308.877 373.274 330.352 351.962C351.826 330.65 363.954 301.68 364.069 271.425C364.177 242.841 353.553 215.322 334.406 194.261C332.548 192.218 329.373 192.212 327.413 194.158L249.994 270.994L172.574 347.83Z" fill="#9885FA"/>
<g filter="url(#filter3_d_21_34)">
<circle cx="249.994" cy="270.994" r="65.0174" fill="white"/>
</g>
<g filter="url(#filter4_d_21_34)">
<rect x="10" y="10" width="191" height="155" rx="12" fill="white"/>
</g>
<path d="M65.64 42V39.536L69.336 35.76C69.5707 35.5253 69.768 35.3067 69.928 35.104C70.088 34.9013 70.2107 34.704 70.296 34.512C70.392 34.32 70.44 34.1227 70.44 33.92C70.44 33.696 70.3973 33.5147 70.312 33.376C70.2267 33.2267 70.0933 33.12 69.912 33.056C69.7413 32.992 69.5173 32.96 69.24 32.96H65.832V30.496C66.3547 30.3787 66.936 30.272 67.576 30.176C68.2267 30.0693 68.9787 30.016 69.832 30.016C70.7707 30.016 71.5067 30.144 72.04 30.4C72.584 30.656 72.968 31.0347 73.192 31.536C73.4267 32.0373 73.544 32.6507 73.544 33.376C73.544 33.8987 73.4747 34.3733 73.336 34.8C73.1973 35.2267 72.9947 35.6267 72.728 36C72.472 36.3733 72.1573 36.7467 71.784 37.12L69.736 39.216H73.864V42H65.64ZM77.4645 42.032C77.2085 42.032 77.0805 41.9093 77.0805 41.664V39.792C77.0805 39.5253 77.2085 39.392 77.4645 39.392H79.2725C79.5392 39.392 79.6725 39.5253 79.6725 39.792V41.664C79.6725 41.8027 79.6352 41.8987 79.5605 41.952C79.4858 42.0053 79.3898 42.032 79.2725 42.032H77.4645ZM83.5369 42V32.96H81.6489V30.976L83.8889 30.016H86.6409V42H83.5369ZM89.9194 42L91.3274 30.112H94.2394L96.6874 38.464L99.1354 30.112H102.015L103.439 42H100.447L99.5354 34.352L99.9834 34.368L98.1114 42H95.1994L93.3114 34.368L93.8074 34.352L92.9114 42H89.9194Z" fill="black"/>
<path d="M67.24 111V101.96H65.352V99.976L67.592 99.016H70.344V111H67.24ZM74.2145 111.032C73.9585 111.032 73.8305 110.909 73.8305 110.664V108.792C73.8305 108.525 73.9585 108.392 74.2145 108.392H76.0225C76.2892 108.392 76.4225 108.525 76.4225 108.792V110.664C76.4225 110.803 76.3852 110.899 76.3105 110.952C76.2358 111.005 76.1398 111.032 76.0225 111.032H74.2145ZM83.1399 111.096C82.7345 111.096 82.3345 111.064 81.9399 111C81.5452 110.925 81.1879 110.792 80.8679 110.6C80.5585 110.408 80.3079 110.136 80.1159 109.784C79.9345 109.421 79.8439 108.947 79.8439 108.36V106.776C79.8439 106.52 79.8812 106.264 79.9559 106.008C80.0305 105.752 80.1532 105.523 80.3239 105.32C80.4945 105.117 80.7292 104.984 81.0279 104.92C80.7079 104.749 80.4785 104.557 80.3399 104.344C80.2119 104.131 80.1372 103.896 80.1159 103.64C80.0945 103.384 80.0839 103.117 80.0839 102.84V101.496C80.0839 100.888 80.2172 100.403 80.4839 100.04C80.7612 99.6773 81.1185 99.416 81.5559 99.256C82.0039 99.096 82.4785 99.016 82.9799 99.016H85.2519C85.7639 99.016 86.2385 99.096 86.6759 99.256C87.1132 99.416 87.4652 99.6773 87.7319 100.04C88.0092 100.403 88.1479 100.888 88.1479 101.496V102.84C88.1479 102.947 88.1372 103.096 88.1159 103.288C88.0945 103.48 88.0519 103.683 87.9879 103.896C87.9239 104.099 87.8279 104.275 87.6999 104.424C87.5719 104.573 87.4012 104.664 87.1879 104.696C87.5612 104.781 87.8279 104.957 87.9879 105.224C88.1585 105.48 88.2652 105.752 88.3079 106.04C88.3612 106.328 88.3879 106.573 88.3879 106.776V108.36C88.3879 109.139 88.2439 109.725 87.9559 110.12C87.6679 110.504 87.2892 110.765 86.8199 110.904C86.3505 111.032 85.8439 111.096 85.2999 111.096H83.1399ZM83.6999 108.472H84.5319C84.8839 108.472 85.0972 108.408 85.1719 108.28C85.2465 108.141 85.2839 107.96 85.2839 107.736V106.984C85.2839 106.771 85.2199 106.595 85.0919 106.456C84.9745 106.307 84.7985 106.232 84.5639 106.232H83.6999C83.5719 106.232 83.4599 106.253 83.3639 106.296C83.2679 106.328 83.1879 106.381 83.1239 106.456C83.0705 106.52 83.0279 106.6 82.9959 106.696C82.9639 106.781 82.9479 106.877 82.9479 106.984V107.736C82.9479 108.013 83.0012 108.205 83.1079 108.312C83.2252 108.419 83.4225 108.472 83.6999 108.472ZM83.6999 103.608H84.5319C84.7239 103.608 84.8572 103.581 84.9319 103.528C85.0172 103.464 85.0705 103.368 85.0919 103.24C85.1132 103.112 85.1239 102.952 85.1239 102.76V102.264C85.1239 101.955 85.0599 101.773 84.9319 101.72C84.8145 101.667 84.6812 101.64 84.5319 101.64H83.6999C83.5079 101.64 83.3585 101.672 83.2519 101.736C83.1559 101.789 83.1079 101.965 83.1079 102.264V102.76C83.1079 103.144 83.1505 103.384 83.2359 103.48C83.3319 103.565 83.4865 103.608 83.6999 103.608ZM91.6225 111L93.0305 99.112H95.9425L98.3905 107.464L100.839 99.112H103.719L105.143 111H102.151L101.239 103.352L101.687 103.368L99.8145 111H96.9025L95.0145 103.368L95.5105 103.352L94.6145 111H91.6225Z" fill="black"/>
<circle cx="46" cy="36" r="10" fill="#9885FA"/>
<circle cx="46" cy="105" r="10" fill="#FFD26A"/>
<rect x="55" y="52" width="108" height="26" rx="13" fill="#EFEFEF"/>
<rect x="55" y="121" width="108" height="26" rx="13" fill="#EFEFEF"/>
<g filter="url(#filter5_d_21_34)">
<rect x="230" y="89" width="192" height="46" rx="12" fill="white"/>
</g>
<path d="M262.67 105.271L263.651 105.075L263.52 104.421L262.866 104.29L262.67 105.271ZM257.788 108.798C257.4 109.191 257.405 109.824 257.798 110.212C258.191 110.6 258.824 110.595 259.212 110.202L257.788 108.798ZM264.927 111.455L263.651 105.075L261.69 105.467L262.966 111.848L264.927 111.455ZM262.866 104.29L256.486 103.014L256.093 104.975L262.474 106.251L262.866 104.29ZM261.958 104.569L257.788 108.798L259.212 110.202L263.382 105.973L261.958 104.569Z" fill="#5D5FEF"/>
<circle cx="254.056" cy="113.885" r="5.76777" transform="rotate(45 254.056 113.885)" stroke="#5D5FEF" stroke-width="2"/>
<path d="M342.113 119.243L350.234 119.243" stroke="#FF3A44" stroke-width="2" stroke-linecap="round" stroke-linejoin="round"/>
<path d="M346 116L346.173 121.95" stroke="#FF3A44" stroke-width="2" stroke-linecap="round" stroke-linejoin="round"/>
<circle cx="346.173" cy="109.768" r="5.76777" stroke="#FF3A44" stroke-width="2"/>
<rect x="271" y="100" width="48" height="26" rx="13" fill="#EFEFEF"/>
<path d="M359 112C359 104.82 364.82 99 372 99H396C403.18 99 409 104.82 409 112C409 119.18 403.18 125 396 125H372C364.82 125 359 119.18 359 112Z" fill="#EFEFEF"/>
<defs>
<filter id="filter0_d_21_34" x="103" y="119" width="306" height="306" filterUnits="userSpaceOnUse" color-interpolation-filters="sRGB">
<feFlood flood-opacity="0" result="BackgroundImageFix"/>
<feColorMatrix in="SourceAlpha" type="matrix" values="0 0 0 0 0 0 0 0 0 0 0 0 0 0 0 0 0 0 127 0" result="hardAlpha"/>
<feOffset/>
<feGaussianBlur stdDeviation="3"/>
<feComposite in2="hardAlpha" operator="out"/>
<feColorMatrix type="matrix" values="0 0 0 0 0 0 0 0 0 0 0 0 0 0 0 0 0 0 0.25 0"/>
<feBlend mode="normal" in2="BackgroundImageFix" result="effect1_dropShadow_21_34"/>
<feBlend mode="normal" in="SourceGraphic" in2="effect1_dropShadow_21_34" result="shape"/>
</filter>
<filter id="filter1_d_21_34" x="123.116" y="139.116" width="205.69" height="232.796" filterUnits="userSpaceOnUse" color-interpolation-filters="sRGB">
<feFlood flood-opacity="0" result="BackgroundImageFix"/>
<feColorMatrix in="SourceAlpha" type="matrix" values="0 0 0 0 0 0 0 0 0 0 0 0 0 0 0 0 0 0 127 0" result="hardAlpha"/>
<feOffset dy="-5"/>
<feGaussianBlur stdDeviation="10"/>
<feColorMatrix type="matrix" values="0 0 0 0 0 0 0 0 0 0 0 0 0 0 0 0 0 0 0.12 0"/>
<feBlend mode="normal" in2="BackgroundImageFix" result="effect1_dropShadow_21_34"/>
<feBlend mode="normal" in="SourceGraphic" in2="effect1_dropShadow_21_34" result="shape"/>
</filter>
<filter id="filter2_d_21_34" x="229.994" y="132.022" width="154.076" height="267.942" filterUnits="userSpaceOnUse" color-interpolation-filters="sRGB">
<feFlood flood-opacity="0" result="BackgroundImageFix"/>
<feColorMatrix in="SourceAlpha" type="matrix" values="0 0 0 0 0 0 0 0 0 0 0 0 0 0 0 0 0 0 127 0" result="hardAlpha"/>
<feOffset dy="-5"/>
<feGaussianBlur stdDeviation="10"/>
<feColorMatrix type="matrix" values="0 0 0 0 0 0 0 0 0 0 0 0 0 0 0 0 0 0 0.12 0"/>
<feBlend mode="normal" in2="BackgroundImageFix" result="effect1_dropShadow_21_34"/>
<feBlend mode="normal" in="SourceGraphic" in2="effect1_dropShadow_21_34" result="shape"/>
</filter>
<filter id="filter3_d_21_34" x="159.976" y="185.976" width="180.035" height="180.035" filterUnits="userSpaceOnUse" color-interpolation-filters="sRGB">
<feFlood flood-opacity="0" result="BackgroundImageFix"/>
<feColorMatrix in="SourceAlpha" type="matrix" values="0 0 0 0 0 0 0 0 0 0 0 0 0 0 0 0 0 0 127 0" result="hardAlpha"/>
<feOffset dy="5"/>
<feGaussianBlur stdDeviation="12.5"/>
<feColorMatrix type="matrix" values="0 0 0 0 0 0 0 0 0 0 0 0 0 0 0 0 0 0 0.1 0"/>
<feBlend mode="normal" in2="BackgroundImageFix" result="effect1_dropShadow_21_34"/>
<feBlend mode="normal" in="SourceGraphic" in2="effect1_dropShadow_21_34" result="shape"/>
</filter>
<filter id="filter4_d_21_34" x="0" y="0" width="211" height="175" filterUnits="userSpaceOnUse" color-interpolation-filters="sRGB">
<feFlood flood-opacity="0" result="BackgroundImageFix"/>
<feColorMatrix in="SourceAlpha" type="matrix" values="0 0 0 0 0 0 0 0 0 0 0 0 0 0 0 0 0 0 127 0" result="hardAlpha"/>
<feOffset/>
<feGaussianBlur stdDeviation="5"/>
<feComposite in2="hardAlpha" operator="out"/>
<feColorMatrix type="matrix" values="0 0 0 0 0 0 0 0 0 0 0 0 0 0 0 0 0 0 0.25 0"/>
<feBlend mode="normal" in2="BackgroundImageFix" result="effect1_dropShadow_21_34"/>
<feBlend mode="normal" in="SourceGraphic" in2="effect1_dropShadow_21_34" result="shape"/>
</filter>
<filter id="filter5_d_21_34" x="220" y="79" width="212" height="66" filterUnits="userSpaceOnUse" color-interpolation-filters="sRGB">
<feFlood flood-opacity="0" result="BackgroundImageFix"/>
<feColorMatrix in="SourceAlpha" type="matrix" values="0 0 0 0 0 0 0 0 0 0 0 0 0 0 0 0 0 0 127 0" result="hardAlpha"/>
<feOffset/>
<feGaussianBlur stdDeviation="5"/>
<feComposite in2="hardAlpha" operator="out"/>
<feColorMatrix type="matrix" values="0 0 0 0 0 0 0 0 0 0 0 0 0 0 0 0 0 0 0.25 0"/>
<feBlend mode="normal" in2="BackgroundImageFix" result="effect1_dropShadow_21_34"/>
<feBlend mode="normal" in="SourceGraphic" in2="effect1_dropShadow_21_34" result="shape"/>
</filter>
<linearGradient id="paint0_linear_21_34" x1="162.083" y1="210.205" x2="337.886" y2="331.764" gradientUnits="userSpaceOnUse">
<stop stop-color="#FFD572"/>
<stop offset="1" stop-color="#FEBD38"/>
</linearGradient>
</defs>
</svg>
