<svg width="30" height="34" viewBox="0 0 30 34" fill="none" xmlns="http://www.w3.org/2000/svg">
<path fill-rule="evenodd" clip-rule="evenodd" d="M0.307421 0.929897C0.110449 1.30112 0 1.77598 0 2.34139V31.0762C0 31.6427 0.110527 32.1174 0.307629 32.4883L16.0856 16.7081L0.307421 0.929897ZM0.999178 33.211C1.59445 33.5389 2.40778 33.4891 3.30146 32.9823L21.8306 22.4531L16.7927 17.4152L0.999178 33.211ZM22.7332 21.9415L28.6387 18.5863C30.4538 17.5533 30.4538 15.8656 28.6387 14.834L22.7304 11.4767L17.4998 16.708L22.7332 21.9415ZM21.8286 10.9643L3.30146 0.436656C2.4079 -0.0711221 1.59466 -0.120369 0.999403 0.207665L16.7927 16.0009L21.8286 10.9643Z" fill="#343434"/>
</svg>
